<svg xmlns="http://www.w3.org/2000/svg" width="60" viewBox="0 0 45 54" height="72" version="1.0">
	<defs>
		<clipPath id="a">
			<path d="M.41 13H13v28H.41Zm0 0" />
		</clipPath>
		<clipPath id="b">
			<path d="M31 13h13.59v28H31Zm0 0" />
		</clipPath>
	</defs>
	<g clip-path="url(#a)">
		<path d="M.333 40.306v.11h4.015v-.11c-1.062-1.063-.937-2.625-.937-5.438V17.29c0-2.656.703-3.11 2.812-3.11 1.688 0 3.188.563 3.188 2.392 0 3.843-5.735 4.5-5.735 7.546 0 .938.64 1.813 1.61 1.813 1.28 0 1.656-.797 2.953-.797 1.14 0 1.812 1.016 1.812 2.25 0 1.89-2.172 4.36-2.172 7.922 0 1.812.594 4.39 2.922 5.64l1.5-2.062c-1.578-.687-2.25-2.062-2.25-3.281 0-2.875 1.344-4.563 1.344-7.235 0-1.062-.594-3.859-3.11-3.859-1.468 0-1.796.844-2.75.844-.75 0-1.234-.656-1.234-1.313 0-3.156 7.39-2.843 7.39-7.61 0-.968-.483-2.78-3.562-2.78H.333v.109c1.078 1.063.937 2.625.937 5.438v15.671c0 2.813.14 4.375-.937 5.438Zm0 0" fill="#fff" />
	</g>
	<path d="M17.376 40.415v-.11c-1.063-1.062-.938-2.624-.938-5.437V19.197c0-2.813-.125-4.375.938-5.438v-.11H13.36v.11c1.078 1.063.938 2.625.938 5.438v15.671c0 2.813.14 4.375-.938 5.438v.11ZM17.911 16.197h.141c.578-.625 1.594-1.188 2.719-1.188 2.703 0 3.297 1.188 6.515 1.188-3.562 1.39-4.125 4.406-4.125 7.859v10.812c0 2.813.125 4.375-.937 5.438v.11h4.016v-.11c-1.079-1.063-.938-2.625-.938-5.438V22.993c0-6.078 2.672-6.343 4.844-8 .875-.671.984-1.343.875-1.875h-.094c-.734 1.063-2.234 1.047-3.187 1.047-1.75 0-3.516-1.047-5.97-1.047-2.124 0-3.515 1.235-3.859 3.079Zm0 0" fill="#fff" />
	<g clip-path="url(#b)">
		<path d="M31.604 34.978c0 2.031.453 4.234.781 5.437h2.438c-.406-1.547-.86-3.031-.86-5.812 0-4.219 1.422-9.016 5.813-9.016.687 0 1.312.156 1.781.531v8.75c0 2.813.14 4.375-.922 5.438v.11h4v-.11c-1.062-1.063-.922-2.625-.922-5.438V19.197c0-2.813-.14-4.375.922-5.438v-.11h-8.828c-2.375 0-3.61.891-3.61 2.75 0 3.298 3.579 4.673 3.579 7 0 2.673-4.172 5.798-4.172 11.579Zm5.203-20.797h3.016c1.984 0 1.734 1.125 1.734 3.562v6.313a3.005 3.005 0 0 0-1.281-.281c-2.813 0-4.406 2.828-5.11 3.953.454-1.281 1.282-2.438 1.282-4.063 0-2.703-2.031-4.343-2.031-7.281 0-1.156.593-2.203 2.39-2.203Zm0 0" fill="#fff" />
	</g>
</svg>
